<mxfile host="app.diagrams.net" modified="2023-10-14T12:41:14.352Z" agent="Mozilla/5.0 (X11; Linux x86_64) AppleWebKit/537.36 (KHTML, like Gecko) Chrome/113.0.0.0 Safari/537.36" version="22.0.4" etag="vUyE1whKymgss-ePwwTF" type="github">
  <diagram name="PÃ¡gina-1" id="6tWg1Gweq85MIb_62ZwQ">
    <mxGraphModel>
      <root>
        <mxCell id="0" />
        <mxCell id="1" parent="0" />
      </root>
    </mxGraphModel>
  </diagram>
</mxfile>
